<svg width="25.000000" height="25.000000" viewBox="0 0 25 25" fill="none" xmlns="http://www.w3.org/2000/svg" xmlns:xlink="http://www.w3.org/1999/xlink">
	<desc>
			Created with Pixso.
	</desc>
	<defs/>
	<path id="ok" d="M25 12.5C25 19.4036 19.4036 25 12.5 25C5.59644 25 0 19.4036 0 12.5C0 5.59644 5.59644 0 12.5 0C19.4036 0 25 5.59644 25 12.5ZM12.5766 3.81128C10.0835 3.81128 8.06251 5.83252 8.06251 8.32544C8.06251 10.8186 10.0835 12.8398 12.5766 12.8398C15.0697 12.8398 17.0907 10.8186 17.0907 8.32544C17.0907 5.83252 15.0697 3.81128 12.5766 3.81128ZM12.5766 10.1917C11.546 10.1917 10.7106 9.35596 10.7106 8.32544C10.7106 7.29492 11.546 6.45947 12.5766 6.45947C13.6071 6.45947 14.4426 7.29492 14.4426 8.32544C14.4426 9.35596 13.6071 10.1917 12.5766 10.1917ZM14.1702 16.4316C15.9774 16.0635 17.0604 15.2075 17.1176 15.1616C17.6464 14.7375 17.7314 13.9651 17.3073 13.4363C16.8833 12.9075 16.1109 12.8225 15.5819 13.2466C15.5707 13.2556 14.4157 14.1416 12.5153 14.1428C10.6148 14.1416 9.4354 13.2556 9.42424 13.2466C8.8953 12.8225 8.12288 12.9075 7.69885 13.4363C7.27476 13.9651 7.3597 14.7375 7.88852 15.1616C7.94659 15.2083 9.07424 16.0864 10.932 16.4458L8.34283 19.1519C7.87231 19.6399 7.88644 20.4167 8.37443 20.8875C8.61261 21.1169 8.91959 21.2312 9.22631 21.2312C9.54789 21.2312 9.86912 21.1055 10.1099 20.8557L12.5153 18.2935L15.1636 20.8723C15.6435 21.3513 16.4205 21.3506 16.8994 20.8708C17.3784 20.3911 17.3778 19.614 16.8981 19.1353L14.1702 16.4316Z" fill="#999999" fill-opacity="1.000000" fill-rule="evenodd"/>
</svg>
