<svg width="24.999975" height="25.000000" viewBox="0 0 25 25" fill="none" xmlns="http://www.w3.org/2000/svg" xmlns:xlink="http://www.w3.org/1999/xlink">
	<desc>
			Created with Pixso.
	</desc>
	<defs/>
	<path id="Vector" d="M17.1779 11.7842C16.3343 11.7842 15.6442 12.4487 15.6442 13.2925C15.6442 14.136 16.3343 14.8262 17.1523 14.8262C17.9959 14.8262 18.6605 14.136 18.6605 13.3179C18.6861 12.4487 18.0215 11.7842 17.1779 11.7842ZM17.1779 14.0593C16.7433 14.0593 16.411 13.7268 16.411 13.2925C16.411 12.8579 16.7433 12.5254 17.1779 12.5254C17.6125 12.5254 17.9448 12.8833 17.9448 13.2925C17.9448 13.7268 17.5869 14.0593 17.1779 14.0593Z" fill="#999999" fill-opacity="1.000000" fill-rule="nonzero"/>
	<path id="Vector" d="M7.79654 9.58569C5.77711 9.56006 4.01331 11.2473 4.06444 13.3945C4.09 15.3884 5.75155 17.1011 7.84767 17.0754C9.89265 17.05 11.5542 15.3884 11.5542 13.3435C11.5542 11.2729 9.89265 9.58569 7.79654 9.58569ZM7.84767 15.6184C6.49286 15.6697 5.39368 14.5959 5.39368 13.2922C5.39368 11.9631 6.49286 10.9404 7.71986 10.9661C8.99797 10.9661 10.046 11.9885 10.046 13.2922C10.0716 14.5959 9.0491 15.5674 7.84767 15.6184Z" fill="#999999" fill-opacity="1.000000" fill-rule="nonzero"/>
	<path id="Vector" d="M12.5 0C5.59815 0 0 5.59814 0 12.5C0 19.4019 5.59815 25 12.5 25C19.4018 25 25 19.4019 25 12.5C25 5.59814 19.4018 0 12.5 0ZM19.683 17.3569C18.9161 17.8425 18.0726 18.0725 17.1779 18.0725C16.7945 18.0725 16.411 18.0215 16.0532 17.9192C15.1585 17.6892 14.3916 17.229 13.7525 16.5645C13.6759 16.4878 13.5992 16.3855 13.4969 16.2832C13.1646 16.7944 12.8323 17.28 12.5 17.7915C12.1677 17.28 11.8354 16.7944 11.5031 16.3088C11.4775 16.3088 11.4775 16.3342 11.4775 16.3342L11.4519 16.3599C10.6851 17.28 9.71369 17.8169 8.53782 18.0215C7.8732 18.1238 7.23414 18.0981 6.59509 17.9192C5.7004 17.6636 4.93353 17.2034 4.29448 16.4878C3.68098 15.7976 3.3231 15.0051 3.16973 14.085C3.01636 13.2412 3.19529 12.4233 3.24642 12.2188C3.39979 11.6309 3.62985 11.1196 3.98772 10.634C4.01329 10.6084 4.01329 10.5317 4.01329 10.5061C3.88548 9.99487 3.62985 9.53467 3.34867 9.07471C3.27198 8.97241 3.19529 8.87012 3.11861 8.74243L3.11861 8.7168C3.14417 8.7168 3.14417 8.7168 3.16973 8.7168C4.11554 8.7168 5.06134 8.7168 6.00715 8.7168C6.05828 8.7168 6.08384 8.69116 6.13496 8.66553C6.79958 8.23096 7.51533 7.89868 8.25664 7.64307C8.79345 7.46411 9.33026 7.31079 9.89263 7.2085C10.4294 7.10645 10.9662 7.02954 11.5286 7.00415C12.8579 6.90186 13.9315 7.02954 14.6472 7.13184C15.184 7.2085 15.6953 7.33643 16.2065 7.48975C17.1012 7.771 17.9192 8.1543 18.7116 8.64014C18.7628 8.66553 18.8394 8.69116 18.9161 8.69116C19.8364 8.69116 20.7566 8.69116 21.6769 8.69116C21.7536 8.69116 21.8302 8.69116 21.9069 8.69116C21.9069 8.7168 21.9069 8.7168 21.9069 8.7168C21.8558 8.79346 21.8302 8.84448 21.7791 8.92114C21.4724 9.40698 21.1912 9.89258 21.0378 10.4551C21.0122 10.5061 21.0122 10.5571 21.0634 10.634C21.8814 11.8098 22.137 13.1135 21.8047 14.5195C21.4468 15.7209 20.7566 16.6667 19.683 17.3569Z" fill="#999999" fill-opacity="1.000000" fill-rule="nonzero"/>
	<path id="Vector" d="M7.71985 11.7842C6.90186 11.7842 6.21167 12.4744 6.21167 13.2925C6.21167 14.136 6.90185 14.8005 7.74541 14.8005C8.56341 14.8005 9.25359 14.1104 9.25359 13.2668C9.25359 12.4487 8.58897 11.7842 7.71985 11.7842ZM7.74541 14.0847C7.31085 14.0847 6.95298 13.7524 6.95298 13.2925C6.95298 12.8579 7.28529 12.5254 7.71985 12.5254C8.15441 12.5254 8.48672 12.8579 8.51228 13.2925C8.53784 13.7268 8.17997 14.0593 7.74541 14.0847Z" fill="#999999" fill-opacity="1.000000" fill-rule="nonzero"/>
	<path id="Vector" d="M17.1011 9.61157C15.0562 9.6626 13.4457 11.2986 13.4202 13.3435C13.4202 15.4141 15.1073 17.127 17.1778 17.1013C19.2484 17.1013 20.9355 15.4397 20.9355 13.3435C20.9355 11.1963 19.1717 9.5603 17.1011 9.61157ZM17.2801 15.6187C15.9253 15.6697 14.8517 14.5962 14.8517 13.2925C14.8517 11.9631 15.9508 10.9407 17.1778 10.9663C18.4559 10.9663 19.504 11.9888 19.504 13.2925C19.504 14.5706 18.4815 15.5676 17.2801 15.6187Z" fill="#999999" fill-opacity="1.000000" fill-rule="nonzero"/>
	<path id="Vector" d="M13.9826 9.86719C14.8006 9.10034 15.7975 8.71704 16.9223 8.61475C15.593 8.02686 14.1871 7.771 12.7301 7.74561C11.0941 7.71997 9.48364 7.94995 7.97546 8.58911C9.12577 8.66577 10.1227 9.04932 10.9663 9.81616C11.8098 10.583 12.2955 11.5544 12.4744 12.6792C12.6789 11.5798 13.1646 10.634 13.9826 9.86719Z" fill="#999999" fill-opacity="1.000000" fill-rule="nonzero"/>
</svg>
