<svg width="24.999975" height="25.000000" viewBox="0 0 25 25" fill="none" xmlns="http://www.w3.org/2000/svg" xmlns:xlink="http://www.w3.org/1999/xlink">
	<desc>
			Created with Pixso.
	</desc>
	<defs/>
	<path id="Vector" d="M12.5 0C5.59816 0 0 5.59814 0 12.5C0 19.4019 5.59816 25 12.5 25C19.4018 25 25 19.4019 25 12.5C25 5.59814 19.4018 0 12.5 0ZM18.8394 13.8547C19.4274 14.4172 20.0409 14.9539 20.5521 15.593C20.7822 15.8743 21.0122 16.1555 21.1656 16.4878C21.3957 16.9478 21.1912 17.459 20.7822 17.4846L18.226 17.4846C17.5613 17.5359 17.0501 17.28 16.59 16.8201C16.2321 16.4622 15.8998 16.0786 15.5675 15.6953C15.4397 15.542 15.2863 15.3884 15.1073 15.2864C14.7495 15.0562 14.4427 15.1328 14.2638 15.4907C14.0593 15.8743 14.0082 16.2832 13.9826 16.6921C13.957 17.3057 13.7781 17.459 13.1646 17.4846C11.8609 17.5359 10.6339 17.3569 9.50919 16.6921C8.51226 16.1042 7.71983 15.3118 7.05521 14.3916C5.72597 12.6023 4.72903 10.634 3.80879 8.6145C3.60429 8.1543 3.75766 7.92432 4.26891 7.89868C5.11247 7.87329 5.93047 7.87329 6.77402 7.89868C7.10633 7.89868 7.3364 8.10327 7.46421 8.40991C7.92433 9.50928 8.46114 10.5828 9.15132 11.5542C9.33026 11.8098 9.53476 12.0654 9.79038 12.27C10.0971 12.4744 10.3016 12.3977 10.455 12.0654C10.5317 11.8608 10.5828 11.6309 10.6084 11.4009C10.6851 10.634 10.6851 9.86719 10.5572 9.1001C10.4806 8.58887 10.2249 8.28223 9.73925 8.17993C9.48363 8.12891 9.53476 8.05225 9.637 7.89868C9.8415 7.6687 10.046 7.51538 10.4294 7.51538L13.318 7.51538C13.7781 7.61768 13.8804 7.79663 13.9315 8.25659L13.9315 11.4775C13.9315 11.6565 14.0082 12.1934 14.3405 12.2954C14.5961 12.3721 14.775 12.1677 14.9284 12.0144C15.6186 11.2729 16.1043 10.4038 16.5644 9.50928C16.7689 9.1001 16.9223 8.69116 17.1012 8.28223C17.229 7.97534 17.408 7.82202 17.7658 7.82202L20.5521 7.82202C20.6288 7.82202 20.7055 7.82202 20.8078 7.84766C21.2679 7.92432 21.3957 8.12891 21.2679 8.58887C21.0378 9.30469 20.6033 9.91821 20.1687 10.5061C19.7086 11.1453 19.1973 11.7588 18.7372 12.4233C18.2771 13.0369 18.3026 13.3435 18.8394 13.8547Z" fill="#999999" fill-opacity="1.000000" fill-rule="nonzero"/>
</svg>
